<?xml version="1.0" encoding="UTF-8"?>
<svg version="1.1" xmlns="http://www.w3.org/2000/svg" width="1563" height="1563">
<path d="M0 0 C1.1691845 -0.00301597 2.33836899 -0.00603194 3.54298332 -0.0091393 C5.47504853 -0.00648509 5.47504853 -0.00648509 7.44614536 -0.00377727 C8.8311864 -0.00542669 10.21622698 -0.00751286 11.60126677 -0.00999737 C15.42830296 -0.01557658 19.25531683 -0.01488931 23.0823558 -0.01321978 C27.23801081 -0.01249024 31.39365944 -0.01750794 35.54931176 -0.0217948 C43.80097026 -0.02938519 52.0526223 -0.03156838 60.30428393 -0.03212385 C70.18418801 -0.03303646 80.06408608 -0.03970093 89.94398757 -0.04647068 C113.82529742 -0.06254336 137.70660663 -0.06843529 161.58792092 -0.07321942 C172.88117815 -0.07555399 184.17443488 -0.07915648 195.46769173 -0.0829148 C234.11160408 -0.09575111 272.75551614 -0.10647049 311.39943057 -0.1099174 C313.8260247 -0.11013904 316.25261882 -0.11036082 318.67921295 -0.11058275 C321.1117294 -0.1108034 323.54424585 -0.11102388 325.97676229 -0.1112442 C330.85696199 -0.11168676 335.73716168 -0.11213387 340.61736137 -0.11258388 C341.82737041 -0.11269327 343.03737946 -0.11280266 344.28405545 -0.11291536 C383.5293912 -0.11654698 422.77470849 -0.13247057 462.02003717 -0.15577424 C503.49454731 -0.18035665 544.96904689 -0.19408949 586.44356453 -0.19528532 C590.99426224 -0.19545678 595.54495994 -0.19567221 600.09565765 -0.19591975 C601.21619988 -0.19597552 602.33674211 -0.19603129 603.49124017 -0.19608875 C621.54289139 -0.19724055 639.59452371 -0.2082735 657.64616854 -0.22280681 C675.78200154 -0.2371557 693.91781024 -0.24041789 712.05364736 -0.23236683 C722.83412739 -0.22790304 733.6145291 -0.23180106 744.39499887 -0.24760534 C751.59230845 -0.25733204 758.78956298 -0.25619923 765.98687201 -0.24616911 C770.09023893 -0.24076038 774.19345513 -0.24012048 778.29680976 -0.25267783 C782.03065375 -0.26400924 785.76422426 -0.2615008 789.49805875 -0.24801075 C791.47176351 -0.24443085 793.44547828 -0.25555716 795.41915134 -0.26730204 C808.16564663 -0.19181659 818.50079403 3.61681124 828.06340629 12.2526505 C836.85218453 21.62319184 839.63176389 33.68691614 839.55950195 46.1076386 C839.56180963 47.08937259 839.56411732 48.07110659 839.56649494 49.0825901 C839.57179107 52.3740866 839.56281392 55.66538766 839.55391532 58.95687413 C839.55478747 61.33966405 839.55653861 63.72245378 839.55909365 66.10524249 C839.56263466 71.28668828 839.55996554 76.4680926 839.55181724 81.6495316 C839.53973478 89.35410686 839.53914678 97.05865317 839.54090122 104.76323617 C839.54352768 117.7242804 839.53685128 130.68530422 839.5248664 143.64634252 C839.51303091 156.47873083 839.50533422 169.31111065 839.50316077 182.14350438 C839.5030233 182.94149021 839.50288582 183.73947604 839.50274417 184.56164325 C839.5020675 188.61423745 839.50146473 192.66683165 839.50089042 196.71942586 C839.49669 225.42126173 839.4832164 254.1230865 839.46428519 282.82491612 C839.44591543 310.70772802 839.43174864 338.59053689 839.42326957 366.47335362 C839.42300652 367.33287762 839.42274347 368.19240162 839.42247244 369.07797179 C839.41983539 377.70969317 839.41728377 386.34141457 839.41479472 394.97313599 C839.40972235 412.55682686 839.40407984 430.14051753 839.39809257 447.72420812 C839.39781799 448.53267142 839.39754341 449.34113472 839.39726051 450.1740969 C839.37886029 504.15861943 839.34712841 558.14313564 839.31340629 612.1276505 C839.87637412 612.11876805 840.43934196 612.10988561 841.01936942 612.100734 C846.89185499 612.0120698 852.76414965 611.9518374 858.63713676 611.90792394 C860.82731952 611.88783943 863.01744887 611.86056633 865.20744926 611.82589269 C868.36009005 611.77723641 871.51202033 611.75464972 874.66496879 611.7370255 C875.64019492 611.71638036 876.61542106 611.69573522 877.6201995 611.67446446 C883.51736214 611.67252892 886.80631258 612.22800424 891.31340629 616.1276505 C893.59682944 619.30375365 893.62677754 622.30339334 893.76262504 626.15182042 C893.80766166 627.37217488 893.85269828 628.59252934 893.89909965 629.84986424 C894.05294816 635.50825215 894.15684405 641.16719955 894.23332816 646.82711339 C894.27729328 649.78400805 894.35983931 652.73561112 894.47942191 655.69039464 C895.28709053 676.1428862 893.10129824 690.02175699 881.12441093 707.42031407 C878.11823221 711.91435952 875.55587902 716.65084397 872.93840629 721.3776505 C869.61167921 727.19701571 866.2644048 733.00593753 862.81340629 738.7526505 C862.22559379 739.73491612 861.63778129 740.71718175 861.03215629 741.729213 C858.54256898 745.20331892 856.35112627 746.78174384 852.31340629 748.1276505 C850.29314924 748.22165285 848.26986339 748.25436012 846.24742079 748.255301 C844.32815216 748.25982495 844.32815216 748.25982495 842.37011042 748.2644403 C840.93913358 748.26274114 839.50815684 748.26095039 838.07718021 748.25907826 C836.55937346 748.26072704 835.04156714 748.26281292 833.52376154 748.26529837 C829.32345535 748.27088587 825.12316946 748.27018881 820.92286073 748.26852078 C816.36435704 748.26779205 811.80585919 748.27280702 807.24735796 748.27709579 C798.19296899 748.2846909 789.13858591 748.28686962 780.08419408 748.28742485 C769.24446776 748.28833699 758.40474692 748.29500005 747.56502295 748.30177167 C721.36344293 748.31784885 695.16186348 748.3237367 668.96027941 748.32852042 C656.5720022 748.33085444 644.18372545 748.33445686 631.7954486 748.3382158 C589.41172144 748.35105223 547.02799454 748.36177182 504.64426547 748.3652184 C501.98255672 748.36544004 499.32084796 748.36566182 496.6591392 748.36588375 C493.99090516 748.36610466 491.32267111 748.36632488 488.65443707 748.3665452 C483.97135362 748.3669321 479.28827017 748.36732171 474.60518673 748.36771626 C473.26484327 748.36782868 471.92449982 748.3679401 470.58415636 748.36805052 C427.52723939 748.37160076 384.4703391 748.38668224 341.4134285 748.40998826 C295.25102614 748.43496512 249.0886329 748.44937251 202.9262234 748.45058632 C197.93603501 748.45075778 192.94584664 748.45097321 187.95565826 748.45122075 C186.72688152 748.45127652 185.49810478 748.45133229 184.23209238 748.45138975 C164.42519936 748.4525422 144.61832354 748.46358061 124.81143633 748.47810781 C104.91792827 748.49244669 85.02444237 748.49572458 65.13093057 748.48766783 C53.30114499 748.48319936 41.47143073 748.48712062 29.64165447 748.50290633 C21.74870084 748.51261688 13.85579747 748.51151586 5.96284436 748.50147011 C1.45968285 748.4960496 -3.04334118 748.49545881 -7.5464916 748.50797883 C-11.63959796 748.51926438 -15.73245417 748.51685266 -19.8255516 748.50331175 C-21.30047763 748.50086735 -22.77542259 748.50349819 -24.25032778 748.51170823 C-26.24838135 748.52210303 -28.24650965 748.51226093 -30.24456072 748.50139666 C-31.90615136 748.50176296 -31.90615136 748.50176296 -33.6013095 748.50213666 C-37.94453976 747.9749633 -41.40576778 746.55228847 -44.35651559 743.27022862 C-44.78512887 742.57349034 -45.21374215 741.87675206 -45.65534371 741.1589005 C-46.39977731 739.96007237 -46.39977731 739.96007237 -47.15924996 738.7370255 C-49.89400472 734.06486136 -52.56997455 729.36710928 -55.18659371 724.6276505 C-56.40912062 722.42835985 -57.63178108 720.22914343 -58.85456246 718.02999425 C-59.48024117 716.90190343 -60.10591988 715.77381261 -60.75055856 714.61153722 C-62.71747097 711.07208701 -64.69378237 707.53808021 -66.67487496 704.00655675 C-67.63587106 702.29339269 -67.63587106 702.29339269 -68.61628121 700.54561925 C-69.5482734 698.88466222 -69.5482734 698.88466222 -70.49909371 697.1901505 C-71.67280038 695.09799959 -72.84602236 693.00557666 -74.01862496 690.91280675 C-74.75689523 689.59615026 -74.75689523 689.59615026 -75.51008004 688.25289464 C-77.56017444 684.54962182 -77.82158079 682.38380212 -77.84772652 678.10494542 C-77.85733407 676.83990682 -77.86694161 675.57486821 -77.87684029 674.2714951 C-77.88168858 672.88370498 -77.88596733 671.49591277 -77.88971871 670.10811925 C-77.89547085 668.68806002 -77.90122857 667.26800082 -77.90699166 665.84794164 C-77.91750296 662.86785067 -77.92334448 659.88778669 -77.92682809 656.9076798 C-77.93230705 653.09442126 -77.95632131 649.28152085 -77.98480004 645.46837449 C-78.00345338 642.53350855 -78.00863349 639.59872831 -78.01016396 636.66380811 C-78.01318597 635.25842197 -78.0211993 633.85303719 -78.03434914 632.44770932 C-78.05146073 630.47805814 -78.04767719 628.50825922 -78.04303902 626.53853917 C-78.04668465 625.41872151 -78.05033028 624.29890386 -78.05408639 623.14515233 C-77.6295068 619.65890681 -76.84628606 617.88642903 -74.68659371 615.1276505 C-70.62160707 612.08601675 -67.65634078 611.7705899 -62.63581246 611.83468175 C-61.97700585 611.83892659 -61.31819924 611.84317143 -60.63942879 611.84754491 C-58.55055487 611.86423854 -56.46267232 611.90186992 -54.37409371 611.9401505 C-52.95158168 611.95520953 -51.52905441 611.96889581 -50.10651559 611.98116612 C-46.6328902 612.01411046 -43.15983884 612.06582642 -39.68659371 612.1276505 C-39.68735315 610.9218725 -39.68811259 609.7160945 -39.68889505 608.47377777 C-39.72223618 555.32839591 -39.75309128 502.18301309 -39.77127999 449.03762364 C-39.7715561 448.23291045 -39.77183222 447.42819727 -39.7721167 446.59909883 C-39.77810264 429.11012463 -39.78364299 411.62115033 -39.78872437 394.13217585 C-39.79121902 385.55547206 -39.79381213 376.9787683 -39.79645699 368.40206456 C-39.79671851 367.54858365 -39.79698003 366.69510274 -39.79724947 365.81575877 C-39.80577075 338.15659676 -39.82079233 310.49744292 -39.83918815 282.83828586 C-39.85805935 254.4127181 -39.870366 225.98715487 -39.87442369 197.56158096 C-39.87499999 193.54581574 -39.87565127 189.53005053 -39.8763482 185.51428533 C-39.87648304 184.72393233 -39.87661789 183.93357933 -39.87675682 183.11927624 C-39.8791194 170.40152236 -39.88839323 157.68378248 -39.90025778 144.96603431 C-39.91204061 132.17753548 -39.91652757 119.38905052 -39.91359647 106.60054645 C-39.91221009 99.67263325 -39.91402907 92.74475752 -39.92500466 85.81685185 C-39.93474009 79.47295236 -39.93522662 73.12912152 -39.9283915 66.78521886 C-39.92754676 64.49161404 -39.93008127 62.19800493 -39.93636008 59.90440854 C-40.02408234 25.87846649 -40.02408234 25.87846649 -28.38971871 12.48311925 C-20.47993025 4.8882109 -11.04741097 0.00563924 0 0 Z M-11.15583175 33.26256782 C-13.30056567 37.71225755 -13.23523765 42.11161646 -13.17878503 46.9689734 C-13.1834 47.94822074 -13.18801498 48.92746809 -13.19276981 49.9363896 C-13.20337285 53.22408502 -13.1854043 56.51100039 -13.16761178 59.79865575 C-13.16936145 62.17071268 -13.17286908 64.54276886 -13.17798775 66.91482091 C-13.18509209 72.08276892 -13.17971663 77.25055061 -13.16345423 82.41847146 C-13.13903904 90.20276568 -13.13797542 97.98694836 -13.14131543 105.77127402 C-13.14628338 118.81657908 -13.13311165 131.86180359 -13.10889596 144.9070847 C-13.07621079 162.54610635 -13.06848451 180.18499021 -13.06501168 197.82406163 C-13.0439994 240.23777432 -12.98815509 282.65146395 -12.93659371 325.0651505 C-12.85409371 419.7957755 -12.77159371 514.5264005 -12.68659371 612.1276505 C259.89340629 612.1276505 532.47340629 612.1276505 813.31340629 612.1276505 C813.37528129 517.9126505 813.43715629 423.6976505 813.50090629 326.6276505 C813.54187431 281.94326573 813.54187431 281.94326573 813.58366996 236.35616612 C813.59370094 209.73965053 813.59370094 209.73965053 813.59973747 183.1231339 C813.60272641 170.44938076 813.61568095 157.77567541 813.63342657 145.1019357 C813.65127066 132.1835908 813.65791962 119.26527616 813.65374114 106.34691939 C813.65158588 98.66247402 813.65758301 90.97814107 813.67582907 83.29371647 C813.68837334 77.62703514 813.68532368 71.96044908 813.67610961 66.29376531 C813.67483325 63.99818007 813.67867437 61.70258533 813.68805403 59.4070189 C813.70006006 56.28621243 813.69362476 53.16596668 813.68254977 50.04516912 C813.69043085 49.14846034 813.69831192 48.25175157 813.70643182 47.3278698 C813.66035629 41.60181695 812.72307543 37.34638573 810.31340629 32.1276505 C805.79604166 27.72611573 801.95994135 25.87831608 795.68337017 25.87465084 C793.94856022 25.86637161 793.94856022 25.86637161 792.17870361 25.85792512 C790.9048134 25.86203575 789.63092319 25.86614639 788.31843024 25.87038159 C786.94843407 25.86768937 785.57843938 25.8641222 784.20844752 25.85975713 C780.42317078 25.85026623 776.63798985 25.85331036 772.85270828 25.85831267 C768.7423557 25.86156942 764.63202402 25.85330502 760.52167803 25.84649432 C753.31083528 25.83616825 746.1000194 25.83335503 738.88916999 25.83540654 C728.16640579 25.83844979 717.44367143 25.83014758 706.72091303 25.81965729 C686.45775779 25.80028807 666.19461266 25.79468798 645.93144926 25.79354317 C630.28610976 25.79262503 614.64077423 25.78851328 598.99543601 25.78214192 C594.49628566 25.78034691 589.9971353 25.77856728 585.49798495 25.77679217 C584.37956544 25.77635007 583.26114592 25.77590798 582.10883491 25.77545248 C550.63786788 25.76313932 519.16690223 25.75525183 487.69593269 25.75613904 C486.50874457 25.7561702 485.32155645 25.75620135 484.09839294 25.75623346 C478.08086742 25.75639968 472.06334191 25.75659776 466.04581639 25.75680287 C464.85065772 25.75684276 463.65549904 25.75688265 462.42412344 25.75692375 C460.0072198 25.75700463 457.59031617 25.75708822 455.17341253 25.75717453 C417.56511374 25.75840022 379.95685101 25.74338568 342.34856254 25.71602941 C300.12165874 25.6853264 257.89477863 25.66809584 215.66786295 25.66995585 C211.16745518 25.67010512 206.6670474 25.67020253 202.16663963 25.67026448 C201.05847833 25.67028779 199.95031703 25.6703111 198.80857508 25.67033511 C180.95384591 25.67039673 163.09914797 25.65760984 145.24442809 25.64039995 C127.30800196 25.62346858 109.37162165 25.62145001 91.43519196 25.6346186 C80.77223459 25.64202452 70.10941617 25.63830092 59.44647345 25.61873392 C52.32877526 25.60677351 45.21117817 25.60928092 38.0934847 25.62367491 C34.03473578 25.63147138 29.97625658 25.63289411 25.91752622 25.61676021 C22.22529836 25.60221134 18.53356504 25.6060639 14.84135926 25.62460794 C12.88751229 25.62967603 10.93364452 25.61511485 8.97985131 25.59976238 C0.40282436 25.66962256 -5.65966204 26.28469151 -11.15583175 33.26256782 Z M13.31340629 638.1276505 C13.31340629 647.6976505 13.31340629 657.2676505 13.31340629 667.1276505 C52.25340629 667.1276505 91.19340629 667.1276505 131.31340629 667.1276505 C131.31340629 657.5576505 131.31340629 647.9876505 131.31340629 638.1276505 C92.37340629 638.1276505 53.43340629 638.1276505 13.31340629 638.1276505 Z M-51.68659371 638.1276505 C-53.37346669 667.96421633 -51.98980792 681.79644857 -35.68659371 706.1276505 C-31.23159371 714.0476505 -31.23159371 714.0476505 -26.68659371 722.1276505 C260.08340629 722.1276505 546.85340629 722.1276505 842.31340629 722.1276505 C847.26340629 713.2176505 852.21340629 704.3076505 857.31340629 695.1276505 C859.25989066 692.20018956 861.20637504 689.27272862 863.21184379 686.25655675 C868.86517286 676.7442161 868.44722196 667.87140471 867.93840629 657.0651505 C867.73215629 650.8157755 867.52590629 644.5664005 867.31340629 638.1276505 C854.44340629 638.1276505 841.57340629 638.1276505 828.31340629 638.1276505 C828.27473441 643.00417394 828.27473441 643.00417394 828.23528129 647.979213 C828.19684082 651.13668945 828.15168691 654.29400371 828.10588676 657.45138097 C828.07770569 659.64140603 828.05647695 661.83153227 828.04241019 664.02169347 C828.02094152 667.17472577 827.97426954 670.32654534 827.92278129 673.479213 C827.92155265 674.45443913 827.92032401 675.42966527 827.91905814 676.43444371 C827.79674526 682.14423155 827.22326041 685.65378971 823.31340629 690.1276505 C819.7810666 692.48254363 818.32441764 692.38072045 814.13985282 692.38834691 C812.8471749 692.39543172 811.55449699 692.40251653 810.22264701 692.40981603 C808.78691668 692.40752211 807.35118669 692.40501239 805.91545707 692.4023087 C804.4059025 692.40665514 802.89635013 692.41183806 801.38680106 692.41779637 C797.28344328 692.43120619 793.1801775 692.43176276 789.07680207 692.42923307 C785.65233294 692.42816453 782.22788252 692.43304383 778.80341738 692.43783849 C770.72421331 692.44894091 762.64505572 692.44936721 754.56584769 692.44332433 C746.22987233 692.43728524 737.89406579 692.44959216 729.55811924 692.4708944 C722.40303949 692.48850697 715.24801348 692.49451223 708.09291285 692.49125665 C703.81873954 692.48944282 699.54468661 692.49208971 695.27053291 692.50597119 C691.25022848 692.51853907 687.23018719 692.51661541 683.20988685 692.5035603 C681.73488112 692.50119255 680.25985693 692.50393637 678.78487235 692.51218343 C676.77024809 692.52263482 674.75554901 692.51275653 672.74092704 692.5018723 C671.6137835 692.50204004 670.48663997 692.50220778 669.32534057 692.50238061 C665.70177562 692.05155441 664.0541458 691.57262446 661.31340629 689.1276505 C655.92102483 672.95050613 657.7192962 655.17502658 657.31340629 638.1276505 C627.61340629 638.1276505 597.91340629 638.1276505 567.31340629 638.1276505 C561.61330363 652.72521186 561.61330363 652.72521186 555.91618949 667.32393956 C548.79097351 685.56428915 548.79097351 685.56428915 545.17741996 694.04464269 C544.48598047 695.71159994 543.88409316 697.41558989 543.31340629 699.1276505 C538.64298578 701.9878203 533.20082535 701.40853712 527.91313773 701.38834691 C526.85475338 701.39217246 525.79636902 701.395998 524.70591241 701.39993948 C521.15380279 701.41027143 517.60185475 701.40627692 514.04973441 701.4023087 C511.50541628 701.40665502 508.96109945 701.4118379 506.41678458 701.41779637 C500.22010073 701.42981204 494.0234766 701.43233689 487.82678336 701.42999611 C482.7907083 701.42821322 477.7546464 701.42996196 472.71857291 701.43422055 C472.00187542 701.43481574 471.28517792 701.43541093 470.54676232 701.43602416 C469.09081564 701.4372359 467.63486897 701.43845003 466.1789223 701.43966653 C452.52577112 701.4505425 438.87264465 701.44837914 425.21949208 701.44228169 C412.72659429 701.43711084 400.23377443 701.44837228 387.74089205 701.46737991 C374.91393147 701.4867463 362.08700778 701.49501652 349.26003247 701.49125665 C342.05832032 701.48934299 334.85667452 701.4918483 327.65497428 701.50597119 C320.88507558 701.51911298 314.1153585 701.51664136 307.34545165 701.5035603 C304.85775861 701.50118683 302.37005468 701.50395661 299.88237411 701.51218343 C296.49262408 701.52258707 293.10340534 701.51460129 289.71367484 701.5018723 C288.72389404 701.50924659 287.73411324 701.51662087 286.71433908 701.52421862 C281.78404778 701.48513438 278.27692971 701.41525331 274.31340629 698.1276505 C267.60445446 688.40761156 263.96969777 675.6648519 259.62590629 664.7526505 C258.48646138 661.89836636 257.34550963 659.04470734 256.20163566 656.19219518 C255.49541551 654.43030637 254.79182169 652.66736176 254.09131461 650.90319371 C253.77055457 650.10150762 253.44979453 649.29982152 253.11931449 648.47384191 C252.84207038 647.77723454 252.56482627 647.08062718 252.27918082 646.36291051 C251.07074128 643.56600865 249.67597637 640.85279066 248.31340629 638.1276505 C218.61340629 638.1276505 188.91340629 638.1276505 158.31340629 638.1276505 C157.98340629 652.6476505 157.65340629 667.1676505 157.31340629 682.1276505 C153.79734314 690.33179785 153.79734314 690.33179785 149.31340629 692.1276505 C146.30705863 692.50796723 146.30705863 692.50796723 142.89934379 692.51533055 C141.60391654 692.52523519 140.3084893 692.53513982 138.97380668 692.54534459 C137.54533893 692.54110682 136.1168721 692.53654899 134.68840629 692.53170323 C133.17855414 692.53740773 131.66870631 692.5443723 130.15886527 692.55250096 C126.06385267 692.57043748 121.96905428 692.56926327 117.8740142 692.56355858 C114.45440724 692.56046787 111.03484149 692.56655776 107.6152404 692.57259732 C99.5484483 692.58664214 91.48176211 692.58508124 83.41496879 692.57369542 C75.09366501 692.56220991 66.77268337 692.57629712 58.45142204 692.6030919 C51.30478233 692.62524246 44.15824379 692.63188787 37.01157218 692.62601548 C32.74410377 692.62264366 28.47684192 692.62507599 24.20940238 692.64226651 C20.19720272 692.65772377 16.18548079 692.65379406 12.17330009 692.63496137 C10.70151961 692.63127227 9.22970382 692.63439338 7.75795585 692.64484715 C5.74782968 692.65803428 3.73758029 692.64411555 1.72746879 692.62885594 C0.60292289 692.62864666 -0.52162301 692.62843738 -1.68024606 692.62822175 C-5.36795092 692.01420127 -7.02108017 690.69612751 -9.68659371 688.1276505 C-12.51691789 683.49870096 -12.03721876 678.05962779 -12.10065621 672.79561925 C-12.12002236 671.80387197 -12.13938851 670.81212468 -12.15934151 669.79032445 C-12.21897824 666.6320198 -12.26545926 663.4736784 -12.31159371 660.3151505 C-12.34978811 658.16995258 -12.38884069 656.02476975 -12.42878121 653.87960362 C-12.52627731 648.62903246 -12.60597282 643.37861631 -12.68659371 638.1276505 C-25.55659371 638.1276505 -38.42659371 638.1276505 -51.68659371 638.1276505 Z M276.31340629 638.1276505 C281.09493467 650.87839286 286.15726037 663.52373826 291.31340629 676.1276505 C368.53340629 676.1276505 445.75340629 676.1276505 525.31340629 676.1276505 C534.7597321 657.58658399 534.7597321 657.58658399 539.31340629 638.1276505 C452.52340629 638.1276505 365.73340629 638.1276505 276.31340629 638.1276505 Z M684.31340629 638.1276505 C684.31340629 647.6976505 684.31340629 657.2676505 684.31340629 667.1276505 C723.25340629 667.1276505 762.19340629 667.1276505 802.31340629 667.1276505 C802.31340629 657.5576505 802.31340629 647.9876505 802.31340629 638.1276505 C763.37340629 638.1276505 724.43340629 638.1276505 684.31340629 638.1276505 Z " fill="#000000" transform="translate(392.6865937113762,263.8723495006561)"/>
<path d="M0 0 C1.09890185 -0.00301597 2.19780371 -0.00603194 3.33000562 -0.0091393 C4.54452506 -0.00736983 5.75904451 -0.00560036 7.01036757 -0.00377727 C8.30026065 -0.0058299 9.59015372 -0.00788253 10.91913447 -0.00999737 C14.52280844 -0.01558191 18.12645872 -0.01488835 21.73013564 -0.01321978 C25.64187922 -0.01249076 29.553616 -0.01750671 33.46535671 -0.0217948 C41.23423284 -0.02938821 49.00310211 -0.03156854 56.77198157 -0.03212385 C66.07310316 -0.03303616 75.37421837 -0.03969972 84.67533722 -0.04647068 C107.15761578 -0.06254617 129.63989368 -0.06843553 152.12217695 -0.07321942 C162.75247396 -0.07555363 173.38277043 -0.07915606 184.01306701 -0.0829148 C220.38404105 -0.09575111 256.75501479 -0.10647068 293.12599105 -0.1099174 C295.41000382 -0.11013904 297.6940166 -0.11036082 299.97802938 -0.11058275 C302.26763368 -0.1108034 304.55723799 -0.11102388 306.84684229 -0.1112442 C311.44037094 -0.11168676 316.03389959 -0.11213387 320.62742823 -0.11258388 C321.76636 -0.11269327 322.90529176 -0.11280266 324.0787366 -0.11291536 C361.02363842 -0.11654745 397.96852062 -0.13247283 434.91341493 -0.15577424 C473.95136618 -0.18035085 512.98930622 -0.19408921 552.02726543 -0.19528532 C556.30971398 -0.19545678 560.59216253 -0.19567221 564.87461108 -0.19591975 C565.92911086 -0.19597552 566.98361063 -0.19603129 568.07006495 -0.19608875 C585.06514386 -0.19724103 602.06020271 -0.208278 619.05527484 -0.22280681 C636.12586111 -0.23714823 653.19642157 -0.24042213 670.26701222 -0.23236683 C680.41713281 -0.22789956 690.56717027 -0.23181486 700.71728 -0.24760534 C707.49061597 -0.25732002 714.26389339 -0.25621086 721.03722877 -0.24616911 C724.90092223 -0.24075161 728.76445551 -0.24014824 732.62813602 -0.25267783 C736.78420526 -0.26604368 740.9398964 -0.25636394 745.09596938 -0.2442863 C746.30346533 -0.25188149 747.51096127 -0.25947669 748.75504801 -0.26730204 C758.9405991 -0.202878 758.9405991 -0.202878 763.74193019 3.1276505 C768.60666432 8.38682253 768.88872996 12.59681104 768.87615126 19.50456929 C768.87850349 20.37375772 768.88085572 21.24294616 768.88327923 22.13847363 C768.88998385 25.07724074 768.88951057 28.01596378 768.88910121 30.9547379 C768.89239891 33.07248629 768.89612428 35.19023406 768.90024269 37.30798101 C768.91028126 43.14809855 768.91398246 48.98820581 768.916632 54.82833076 C768.9205295 61.11886368 768.93010816 67.40938841 768.93884486 73.69991612 C768.95768899 88.18228585 768.96786722 102.66465459 768.97630554 117.14703352 C768.98051062 124.30156385 768.98573277 131.45609333 768.99099007 138.61062295 C769.0088804 163.09481122 769.02387731 187.57899973 769.03131026 212.06319356 C769.03178502 213.60055304 769.03226091 215.13791252 769.03273792 216.675272 C769.03309249 217.81887414 769.03309249 217.81887414 769.03345421 218.98557935 C769.03465543 222.84836609 769.03587087 226.71115283 769.0370962 230.57393956 C769.03733635 231.34052473 769.0375765 232.10710991 769.03782393 232.89692493 C769.04571889 257.75790021 769.0691547 282.61882781 769.10165215 307.47978226 C769.13593683 333.75589093 769.1556601 360.03197168 769.1589545 386.30810308 C769.15937205 389.19166002 769.15985162 392.07521694 769.16037768 394.95877385 C769.16050087 395.66880174 769.16062406 396.37882962 769.16075099 397.1103735 C769.16308464 408.54486886 769.1787537 419.97930891 769.19921953 431.41378454 C769.2194583 442.90353142 769.22463019 454.39318711 769.21544889 465.88295314 C769.21089067 472.10957859 769.21287877 478.33602415 769.23221034 484.56262517 C769.24974596 490.25981024 769.24892259 495.95668291 769.23331305 501.65387085 C769.23092234 503.71782585 769.23533565 505.78180194 769.2471417 507.84572455 C769.26217454 510.64665463 769.25264775 513.44646544 769.23691481 516.24736714 C769.24713702 517.05275406 769.25735923 517.85814098 769.2678912 518.68793356 C769.19920171 524.27304238 768.11726196 527.61703585 764.74193019 532.1276505 C759.30754972 536.35905138 752.64134368 535.54331152 746.07032126 535.50517392 C744.12477483 535.51171441 744.12477483 535.51171441 742.13992444 535.51838702 C738.53015046 535.53009113 734.92061653 535.52306801 731.31084638 535.51305316 C727.38735967 535.50545632 723.46391032 535.51521752 719.54042888 535.52278316 C712.66086296 535.53363186 705.78136763 535.53328119 698.90179843 535.52564168 C688.67184484 535.51431246 678.441951 535.52008593 668.21199784 535.5292666 C649.94353966 535.54508046 631.67511293 535.54368808 613.40665175 535.53502986 C597.42047249 535.52749029 581.43430478 535.52550978 565.44812411 535.5290978 C563.85899827 535.52944153 563.85899827 535.52944153 562.23776888 535.52979221 C557.93751828 535.53072618 553.63726768 535.53168138 549.33701709 535.5326715 C508.97883614 535.54185319 468.62067524 535.53352055 428.26249739 535.51738081 C392.38592063 535.50314244 356.50937581 535.5044182 320.63279933 535.51876378 C280.34804835 535.53481808 240.06331509 535.54120312 199.77856135 535.53192699 C195.48634774 535.5309648 191.19413412 535.53002628 186.9019205 535.5290978 C185.8450265 535.52886056 184.7881325 535.52862333 183.69921141 535.52837891 C167.72015938 535.52496262 151.74112014 535.52896449 135.76206988 535.53653646 C117.59885546 535.54510038 99.43567747 535.54299933 81.27246761 535.52669422 C71.09990793 535.51786424 60.92742705 535.51734068 50.75486937 535.52863275 C43.96795135 535.53533747 37.18109678 535.53121404 30.39418819 535.51811844 C26.52197636 535.5109523 22.64992161 535.50860337 18.77771448 535.51933639 C14.61424339 535.53075958 10.45116093 535.51918624 6.28769797 535.50517392 C5.07522386 535.51219742 3.86274975 535.51922092 2.613534 535.52645725 C1.50727073 535.51894669 0.40100745 535.51143614 -0.73877895 535.50369799 C-1.69125803 535.50349471 -2.64373711 535.50329144 -3.62507919 535.503082 C-8.01581165 534.87701852 -10.58953979 532.87046164 -13.50806981 529.6276505 C-16.64304953 525.14910805 -16.40093813 521.02282173 -16.38949758 515.76355577 C-16.39257653 514.46185628 -16.39257653 514.46185628 -16.39571768 513.13385984 C-16.40141254 510.19982518 -16.39992738 507.26583709 -16.39851171 504.33179784 C-16.40109392 502.21746169 -16.40410667 500.10312603 -16.40751511 497.98879105 C-16.41560525 492.15814298 -16.4173758 486.3275072 -16.41811258 480.49685419 C-16.41995962 474.21656652 -16.42750515 467.93628529 -16.43424779 461.65600133 C-16.44855496 447.19763374 -16.45435935 432.73926936 -16.45893974 418.28089602 C-16.46127456 411.1386549 -16.46487707 403.9964146 -16.46863511 396.85417411 C-16.48147103 372.41326592 -16.49219054 347.97235818 -16.49563771 323.5314467 C-16.49585935 321.9968307 -16.49608113 320.4622147 -16.49630307 318.9275987 C-16.49652371 317.38924389 -16.49674419 315.85088908 -16.49696451 314.31253427 C-16.49740707 311.22624814 -16.49785419 308.13996202 -16.49830419 305.05367589 C-16.49841358 304.2884548 -16.49852297 303.52323371 -16.49863568 302.73482411 C-16.50226734 277.91537024 -16.51819131 253.09594555 -16.54149455 228.27650286 C-16.56607799 202.04569245 -16.57980985 175.81489873 -16.58100563 149.58407646 C-16.58117709 146.7058736 -16.58139252 143.82767075 -16.58164006 140.9494679 C-16.58169583 140.24075574 -16.5817516 139.53204358 -16.58180906 138.8018553 C-16.58296076 127.38577079 -16.59399278 115.96971618 -16.60852712 104.55364177 C-16.62287732 93.08408552 -16.62588449 81.61458167 -16.61808714 70.14501628 C-16.61416951 63.92867145 -16.61516441 57.71242748 -16.62914449 51.49609494 C-16.64181668 45.80949185 -16.64074498 40.12306607 -16.62855378 34.43646345 C-16.62658515 32.37522011 -16.62972853 30.31396449 -16.63839814 28.25273844 C-16.649412 25.45803092 -16.64205851 22.66395792 -16.63000661 19.86926866 C-16.6376018 19.06285907 -16.645197 18.25644948 -16.65302235 17.42560324 C-16.60783749 12.59559548 -15.89672051 9.3258582 -13.25806981 5.1276505 C-8.93284012 1.12681303 -5.80991528 0.00315006 0 0 Z M10.74193019 27.1276505 C10.74193019 186.1876505 10.74193019 345.2476505 10.74193019 509.1276505 C252.30193019 509.1276505 493.86193019 509.1276505 742.74193019 509.1276505 C742.74193019 350.0676505 742.74193019 191.0076505 742.74193019 27.1276505 C501.18193019 27.1276505 259.62193019 27.1276505 10.74193019 27.1276505 Z " fill="#000000" transform="translate(416.2580698132515,314.8723495006561)"/>
<path d="M0 0 C0.64308105 0.33821777 1.28616211 0.67643555 1.94873047 1.02490234 C17.1098704 9.03997976 30.97344668 18.861975 44 30 C44.77214844 30.63808594 45.54429687 31.27617188 46.33984375 31.93359375 C54.52880422 38.81942851 54.52880422 38.81942851 55.34375 44.3203125 C55.6034226 48.66982861 55.55623453 51.97728721 52.8125 55.5 C48.79031488 59.07527567 46.69147506 59.94266186 41.3125 60.125 C35.36149483 59.15726645 31.37257508 54.86339603 27 51 C-32.25095802 -0.25082867 -117.08828244 -16.25511201 -193.4140625 -11.27734375 C-238.80097389 -7.76702707 -283.68909135 2.27784019 -324 24 C-324.97839844 24.51530273 -324.97839844 24.51530273 -325.9765625 25.04101562 C-340.33210528 32.62063136 -352.94431349 41.97912072 -365.1953125 52.58984375 C-374.39754469 60.49761152 -374.39754469 60.49761152 -381 60 C-385.48160486 58.7115386 -388.28802461 57.00121539 -391 53.1875 C-392.537299 48.28735943 -392.89899946 44.79799892 -390.5625 40.125 C-354.71379041 -6.92643134 -279.7538379 -27.36621955 -224.6875 -35.1875 C-148.91261516 -45.35016689 -68.08950983 -36.38683457 0 0 Z " fill="#000000" transform="translate(961,661)"/>
<path d="M0 0 C11.45865041 9.67619368 19.32193314 22.94063877 21.9375 37.75 C22.17594792 41.45605867 22.16845888 45.16198229 22.1875 48.875 C22.2184375 50.34839844 22.2184375 50.34839844 22.25 51.8515625 C22.33329326 67.67728193 16.13787275 82.33175481 5.09765625 93.6484375 C4.38480469 94.34195312 3.67195313 95.03546875 2.9375 95.75 C2.42058594 96.29914063 1.90367188 96.84828125 1.37109375 97.4140625 C-11.77221006 110.24851583 -31.4548564 113.89653755 -49.0625 113.75 C-64.25258187 113.05542369 -78.22089052 108.33816887 -90.0625 98.75 C-90.97515625 98.09644531 -90.97515625 98.09644531 -91.90625 97.4296875 C-103.29885876 88.78166176 -109.82032514 74.24575847 -112.375 60.5625 C-114.86777753 42.17826573 -110.94497447 24.74527083 -99.85546875 9.76953125 C-74.61405448 -19.45038965 -30.58523005 -22.47078126 0 0 Z M-71.6875 21 C-79.93474998 30.54944735 -83.76619301 39.64592234 -83.40625 52.37890625 C-82.27829145 63.44059068 -78.31462901 71.95280761 -70.18359375 79.4921875 C-60.68273509 87.20803635 -50.96837472 88.84048575 -39.05126953 87.97314453 C-29.54782286 86.90683588 -21.30387654 81.91018678 -15.27734375 74.578125 C-8.08768872 64.33242496 -5.70098031 53.20777891 -7.75 40.875 C-9.85215268 31.42256173 -14.33044012 23.66946224 -22.0625 17.75 C-38.806422 7.76888286 -56.63447608 8.09740807 -71.6875 21 Z " fill="#000000" transform="translate(1174.0625,1063.25)"/>
<path d="M0 0 C10.10625 -0.061875 20.2125 -0.12375 30.625 -0.1875 C35.36738037 -0.22846802 35.36738037 -0.22846802 40.20556641 -0.27026367 C42.7542279 -0.27903799 45.30289366 -0.28667967 47.8515625 -0.29296875 C49.14022217 -0.30831665 50.42888184 -0.32366455 51.7565918 -0.33947754 C68.0155294 -0.34409219 83.84933834 2.88793652 96.0625 14.3125 C105.27495795 24.38113434 107.59069242 35.84756249 107.24609375 49.09375 C106.56500797 59.90463541 102.04846889 69.65293171 93.9375 76.9375 C86.45946344 83 86.45946344 83 83 83 C86.20515797 88.8708339 89.8894448 94.29232991 93.75 99.75 C94.36891113 100.63091309 94.98782227 101.51182617 95.62548828 102.41943359 C99.58440399 108.04144599 103.60254258 113.61090376 107.7421875 119.1015625 C109 121 109 121 109 123 C81.65566467 125.51286637 81.65566467 125.51286637 74.59814453 121.70361328 C70.36835908 117.67204372 68.27757588 112.2817137 66 107 C61.44188527 97.35656903 61.44188527 97.35656903 54 90 C45.70754714 87.67702388 37.56340785 88.59004962 29 89 C29 100.22 29 111.44 29 123 C19.43 123 9.86 123 0 123 C0 82.41 0 41.82 0 0 Z M29 24 C29 37.86 29 51.72 29 66 C35.620625 66.0928125 35.620625 66.0928125 42.375 66.1875 C43.74575684 66.21481201 45.11651367 66.24212402 46.52880859 66.27026367 C55.46239573 66.33045956 64.62922546 66.05907277 71.5 59.625 C72.1290625 59.06039063 72.758125 58.49578125 73.40625 57.9140625 C77.41696347 53.09727427 77.43440068 48.03174453 77.30859375 42.0078125 C76.77825063 36.83864538 75.15673563 33.13489527 71.45703125 29.47265625 C63.10623135 22.87991948 53.11683295 23.74718223 43 23.875 C38.38 23.91625 33.76 23.9575 29 24 Z " fill="#000000" transform="translate(1217,1051)"/>
<path d="M0 0 C10.10625 -0.061875 20.2125 -0.12375 30.625 -0.1875 C35.36738037 -0.22846802 35.36738037 -0.22846802 40.20556641 -0.27026367 C42.7542279 -0.27903799 45.30289366 -0.28667967 47.8515625 -0.29296875 C49.14022217 -0.30831665 50.42888184 -0.32366455 51.7565918 -0.33947754 C68.0155294 -0.34409219 83.84933834 2.88793652 96.0625 14.3125 C105.27495795 24.38113434 107.59069242 35.84756249 107.24609375 49.09375 C106.56500797 59.90463541 102.04846889 69.65293171 93.9375 76.9375 C86.45946344 83 86.45946344 83 83 83 C86.20515797 88.8708339 89.8894448 94.29232991 93.75 99.75 C94.36891113 100.63091309 94.98782227 101.51182617 95.62548828 102.41943359 C99.58440399 108.04144599 103.60254258 113.61090376 107.7421875 119.1015625 C109 121 109 121 109 123 C81.65566467 125.51286637 81.65566467 125.51286637 74.59814453 121.70361328 C70.36835908 117.67204372 68.27757588 112.2817137 66 107 C61.44188527 97.35656903 61.44188527 97.35656903 54 90 C45.70754714 87.67702388 37.56340785 88.59004962 29 89 C29 100.22 29 111.44 29 123 C19.43 123 9.86 123 0 123 C0 82.41 0 41.82 0 0 Z M29 24 C29 37.86 29 51.72 29 66 C35.620625 66.0928125 35.620625 66.0928125 42.375 66.1875 C43.74575684 66.21481201 45.11651367 66.24212402 46.52880859 66.27026367 C55.46239573 66.33045956 64.62922546 66.05907277 71.5 59.625 C72.1290625 59.06039063 72.758125 58.49578125 73.40625 57.9140625 C77.41696347 53.09727427 77.43440068 48.03174453 77.30859375 42.0078125 C76.77825063 36.83864538 75.15673563 33.13489527 71.45703125 29.47265625 C63.10623135 22.87991948 53.11683295 23.74718223 43 23.875 C38.38 23.91625 33.76 23.9575 29 24 Z " fill="#000000" transform="translate(812,1051)"/>
<path d="M0 0 C10.10625 -0.061875 20.2125 -0.12375 30.625 -0.1875 C35.36738037 -0.22846802 35.36738037 -0.22846802 40.20556641 -0.27026367 C42.7542279 -0.27903799 45.30289366 -0.28667967 47.8515625 -0.29296875 C49.14022217 -0.30831665 50.42888184 -0.32366455 51.7565918 -0.33947754 C68.8402934 -0.34432627 84.18625335 3.39491075 96.8046875 15.4453125 C104.49938318 24.39963808 107.53404928 35.43726205 107.2421875 47.046875 C106.30531816 58.4706366 103.02545582 68.41023099 94.4609375 76.35546875 C92.02591322 78.32719195 89.55391513 80.18616413 87 82 C85.66476484 82.9974592 84.33075919 83.99657698 83 85 C83.64324219 85.86238281 84.28648438 86.72476562 84.94921875 87.61328125 C90.46049078 95.04322359 95.82967494 102.55853383 101.0625 110.1875 C101.62219482 111.00065674 102.18188965 111.81381348 102.75854492 112.65161133 C103.28295166 113.42013428 103.8073584 114.18865723 104.34765625 114.98046875 C104.81179932 115.66004639 105.27594238 116.33962402 105.75415039 117.03979492 C106.98319427 118.97355806 108.01409915 120.93327252 109 123 C81.76976091 125.67413919 81.76976091 125.67413919 74.48388672 121.58935547 C69.97341915 117.27423685 67.49678131 111.63422897 65 106 C60.91015377 96.89256371 60.91015377 96.89256371 54 90 C45.7186589 87.78573767 37.52512513 88.63914814 29 89 C29 100.22 29 111.44 29 123 C19.43 123 9.86 123 0 123 C0 82.41 0 41.82 0 0 Z M29 24 C29 37.86 29 51.72 29 66 C35.620625 66.0928125 35.620625 66.0928125 42.375 66.1875 C43.74575684 66.21481201 45.11651367 66.24212402 46.52880859 66.27026367 C56.27322302 66.33592304 65.27658073 65.69729968 72.59375 58.65625 C76.75781177 53.75191058 77.51251345 48.6303552 77.27734375 42.421875 C76.55975231 36.15558359 73.86290102 32.3960019 69.3046875 28.359375 C60.89681972 23.40015807 52.48252995 23.63045977 42.9375 23.8125 C38.338125 23.874375 33.73875 23.93625 29 24 Z " fill="#000000" transform="translate(941,1051)"/>
<path d="M0 0 C31.02 0 62.04 0 94 0 C94 7.92 94 15.84 94 24 C72.55 24 51.1 24 29 24 C29 32.25 29 40.5 29 49 C47.81 49 66.62 49 86 49 C86 56.59 86 64.18 86 72 C67.19 72 48.38 72 29 72 C29 81.24 29 90.48 29 100 C51.11 100 73.22 100 96 100 C96 107.59 96 115.18 96 123 C64.32 123 32.64 123 0 123 C0 82.41 0 41.82 0 0 Z " fill="#000000" transform="translate(694,1051)"/>
<path d="M0 0 C13.06394959 10.80925778 19.5333767 27.19725123 21.24609375 43.72265625 C22.80756059 64.24884763 20.03125744 85.4996425 6.51953125 101.82421875 C-3.94151197 112.87669904 -15.76442357 117.50146585 -30.78515625 118.28515625 C-39.93866057 118.28515625 -48.35894524 116.7703937 -56.37890625 112.28515625 C-57.11625 111.87523437 -57.85359375 111.4653125 -58.61328125 111.04296875 C-71.83117822 102.9754937 -79.51636717 90.14203029 -83.24536133 75.33349609 C-87.8608615 53.10195598 -85.10779963 29.74219759 -73.37890625 10.28515625 C-66.07579143 -0.30780511 -55.33541526 -6.19633388 -43.0625 -9.30078125 C-27.79584308 -11.6563353 -12.65911313 -9.12537055 0 0 Z M-47.62890625 22.22265625 C-56.32352116 33.2153029 -56.28136597 50.41521698 -55.0703125 63.66015625 C-53.89768985 72.46001469 -51.97612508 81.87642939 -45.37890625 88.28515625 C-40.26465696 91.89521457 -35.69457455 93.55738333 -29.37890625 93.28515625 C-23.92366316 92.16026123 -19.00621847 89.57011148 -15.37890625 85.28515625 C-6.3199305 71.4081103 -6.3184555 51.7879619 -9.56640625 35.97265625 C-11.91886821 27.5037932 -16.08339478 21.28137145 -23.37890625 16.28515625 C-32.51769097 13.23889468 -40.91367145 15.47384528 -47.62890625 22.22265625 Z " fill="#000000" transform="translate(482.37890625,1058.71484375)"/>
<path d="M0 0 C-1.24327837 3.38985605 -2.63122406 6.12996003 -4.80078125 9.01171875 C-5.63814819 10.13429077 -5.63814819 10.13429077 -6.49243164 11.27954102 C-7.0930542 12.07416748 -7.69367676 12.86879395 -8.3125 13.6875 C-9.58930472 15.39786814 -10.86532862 17.10881941 -12.140625 18.8203125 C-12.78708984 19.6855957 -13.43355469 20.55087891 -14.09960938 21.44238281 C-16.9578036 25.28904811 -19.76333484 29.17276774 -22.5625 33.0625 C-23.09182129 33.79718506 -23.62114258 34.53187012 -24.16650391 35.28881836 C-25.23724479 36.77519931 -26.30772036 38.26177143 -27.37792969 39.74853516 C-29.03339288 42.04634996 -30.69196457 44.34188876 -32.3515625 46.63671875 C-38.9319662 55.73603354 -45.48224569 64.85568799 -52 74 C-41.77 74 -31.54 74 -21 74 C-21 66.41 -21 58.82 -21 51 C-11.76 51 -2.52 51 7 51 C7 58.59 7 66.18 7 74 C13.6 74 20.2 74 27 74 C27 81.92 27 89.84 27 98 C20.4 98 13.8 98 7 98 C7 106.25 7 114.5 7 123 C-2.57 123 -12.14 123 -22 123 C-22 114.75 -22 106.5 -22 98 C-43.78 98 -65.56 98 -88 98 C-88 73.93262671 -88 73.93262671 -81.375 66.875 C-79.9852547 65.21759028 -78.59727495 63.55869876 -77.2109375 61.8984375 C-76.50420898 61.08600586 -75.79748047 60.27357422 -75.06933594 59.43652344 C-71.82533056 55.61689465 -68.92709216 51.56412091 -66 47.5 C-64.84716976 45.92683137 -63.69220903 44.35522184 -62.53515625 42.78515625 C-61.95781738 42.00156738 -61.38047852 41.21797852 -60.78564453 40.41064453 C-58.94920297 37.93142332 -57.10025153 35.46209014 -55.24609375 32.99609375 C-54.61960937 32.16045898 -53.993125 31.32482422 -53.34765625 30.46386719 C-52.0777576 28.78430286 -50.79520168 27.11423154 -49.5 25.45410156 C-46.33199979 21.35157368 -43.58220304 17.37679932 -41.25390625 12.73828125 C-32.09640156 -4.44440168 -17.26996065 -1.86900878 0 0 Z " fill="#000000" transform="translate(603,1051)"/>
<path d="M0 0 C-1.61261827 4.2899434 -3.63274376 7.33981931 -6.5 10.9375 C-10.04735619 15.44839917 -13.49634503 20.00380272 -16.8125 24.6875 C-17.21952148 25.26145508 -17.62654297 25.83541016 -18.04589844 26.42675781 C-18.90595941 27.63983382 -19.7658168 28.85305419 -20.62548828 30.06640625 C-30.89449459 44.51232632 -41.36575455 58.82100606 -52 73 C-41.77 73.33 -31.54 73.66 -21 74 C-21 66.41 -21 58.82 -21 51 C-12.09 51 -3.18 51 6 51 C6 58.59 6 66.18 6 74 C12.6 74 19.2 74 26 74 C26 81.92 26 89.84 26 98 C19.4 98 12.8 98 6 98 C6 106.25 6 114.5 6 123 C-3.24 123 -12.48 123 -22 123 C-22 114.75 -22 106.5 -22 98 C-43.78 98 -65.56 98 -88 98 C-88 73.93100958 -88 73.93100958 -81.875 67.375 C-80.57806456 65.80972169 -79.28253092 64.24328101 -77.98828125 62.67578125 C-77.3226416 61.90443848 -76.65700195 61.1330957 -75.97119141 60.33837891 C-72.79138084 56.56624297 -69.94683061 52.56196215 -67.0625 48.5625 C-63.49129536 43.69960438 -59.8971983 38.85413079 -56.27734375 34.02734375 C-55.65657959 33.1974292 -55.03581543 32.36751465 -54.39624023 31.51245117 C-53.13397328 29.83999214 -51.85870618 28.17726458 -50.57055664 26.5246582 C-47.32780947 22.32740772 -44.49727396 18.21773286 -42.03125 13.515625 C-32.22526409 -4.10465638 -18.0483656 -2.07423521 0 0 Z " fill="#000000" transform="translate(364,1051)"/>
<path d="M0 0 C4.37483189 2.15119523 7.58069706 5.31849415 10.95703125 8.76171875 C11.50485764 9.31237503 12.05268402 9.86303131 12.61711121 10.43037415 C14.35368793 12.17808307 16.08315297 13.93263999 17.8125 15.6875 C18.99367666 16.87871544 20.1753126 18.06947566 21.35742188 19.25976562 C24.24362357 22.16793528 27.12347065 25.08226417 30 28 C37.11138757 22.14013903 43.44827832 15.57870269 49.88085938 8.9921875 C50.73873047 8.12335938 51.59660156 7.25453125 52.48046875 6.359375 C53.25285889 5.57014648 54.02524902 4.78091797 54.82104492 3.96777344 C58.72248644 0.44445482 61.64751946 -0.4146735 66.97265625 -0.24609375 C70.21573794 0.14757513 72.33097279 1.137888 75 3 C77.71628671 6.89334429 78.35191647 10.26132692 78.49609375 14.875 C77.16241694 20.58775736 72.42452759 24.85399074 68.359375 28.8359375 C67.83232971 29.36015289 67.30528442 29.88436829 66.76226807 30.42446899 C65.09619309 32.07944834 63.42326417 33.72729289 61.75 35.375 C60.61151665 36.50343981 59.47349122 37.63234181 58.3359375 38.76171875 C55.56255488 41.51318208 52.78300766 44.25827383 50 47 C55.85986097 54.11138757 62.42129731 60.44827832 69.0078125 66.88085938 C69.87664062 67.73873047 70.74546875 68.59660156 71.640625 69.48046875 C72.42985352 70.25285889 73.21908203 71.02524902 74.03222656 71.82104492 C77.58033735 75.74993931 78.39728712 78.67925193 78.2578125 84.0390625 C77.70988814 88.20660842 75.1576945 91.36858792 72 94 C68.21839305 95.26053565 64.91232206 95.7120186 61 95 C53.44561983 90.91539456 47.46954306 83.69773477 41.5 77.625 C40.47703465 76.59198014 39.45360039 75.55942442 38.4296875 74.52734375 C35.94770186 72.0235512 33.47210065 69.51355745 31 67 C24.14400856 72.63441285 18.00950659 78.94213785 11.81396484 85.28198242 C10.42725279 86.69881977 9.03403145 88.10927707 7.640625 89.51953125 C6.82110352 90.35589111 6.00158203 91.19225098 5.15722656 92.05395508 C1.7658083 95.11337054 -1.44880544 95.35160524 -5.9375 95.27734375 C-9.42504073 94.8083752 -11.4041149 93.29403799 -14 91 C-16.42253277 87.63971261 -17.2860459 84.83760512 -17.25 80.75 C-16.28542547 74.97210305 -12.78726602 71.67812372 -8.71972656 67.68896484 C-6.5926515 65.59993797 -4.49657091 63.48136858 -2.3984375 61.36328125 C2.04617922 56.88699582 6.51602774 52.43683362 11 48 C6.57062369 42.68336208 1.87459211 37.78239618 -3.0625 32.9375 C-16.72087183 19.53276553 -16.72087183 19.53276553 -17.12890625 12.17578125 C-16.92729985 8.77290962 -15.98463562 6.75288166 -14 4 C-9.2696145 -0.18034068 -6.05537964 -0.67281996 0 0 Z " fill="#000000" transform="translate(900,445)"/>
<path d="M0 0 C4.49086139 2.72311449 8.17870603 5.90697288 11.8359375 9.640625 C12.36015289 10.16767029 12.88436829 10.69471558 13.42446899 11.23773193 C15.07944834 12.90380691 16.72729289 14.57673583 18.375 16.25 C19.50343981 17.38848335 20.63234181 18.52650878 21.76171875 19.6640625 C24.51318208 22.43744512 27.25827383 25.21699234 30 28 C36.85599144 22.36558715 42.99049341 16.05786215 49.18603516 9.71801758 C50.57274721 8.30118023 51.96596855 6.89072293 53.359375 5.48046875 C54.58865723 4.22592896 54.58865723 4.22592896 55.84277344 2.94604492 C59.2341917 -0.11337054 62.44880544 -0.35160524 66.9375 -0.27734375 C70.42504073 0.1916248 72.4041149 1.70596201 75 4 C77.42083087 7.43601801 77.97731959 9.54639182 78.1875 13.75 C76.48067509 23.39054734 65.65822624 31.59973373 59 38.125 C58.12988281 38.98609375 57.25976562 39.8471875 56.36328125 40.734375 C54.24675783 42.82763992 52.12567828 44.91603944 50 47 C55.63516288 53.83022189 61.9096399 59.91579579 68.27539062 66.06054688 C77.66472731 75.28761694 77.66472731 75.28761694 78.21484375 81.37890625 C77.58627988 86.32774008 76.77327411 89.44234155 73 93 C69.98117567 95.26411825 66.90995693 95.29550799 63.1953125 95.4609375 C57.43843223 94.25219752 53.1483841 89.42695205 49.1640625 85.359375 C48.63984711 84.83232971 48.11563171 84.30528442 47.57553101 83.76226807 C45.92055166 82.09619309 44.27270711 80.42326417 42.625 78.75 C41.49656019 77.61151665 40.36765819 76.47349122 39.23828125 75.3359375 C36.48681792 72.56255488 33.74172617 69.78300766 31 67 C23.88861243 72.85986097 17.55172168 79.42129731 11.11914062 86.0078125 C10.26126953 86.87664062 9.40339844 87.74546875 8.51953125 88.640625 C7.74714111 89.42985352 6.97475098 90.21908203 6.17895508 91.03222656 C2.31041382 94.52583357 -0.68432814 95.45818325 -5.97265625 95.3203125 C-10.1542105 94.65964304 -12.83397814 92.04941967 -15.875 89.3125 C-17.64772802 85.66855906 -17.81248177 81.95365146 -17 78 C-14.28993031 73.50148142 -11.09221018 69.82049375 -7.359375 66.1640625 C-6.83232971 65.63984711 -6.30528442 65.11563171 -5.76226807 64.57553101 C-4.09619309 62.92055166 -2.42326417 61.27270711 -0.75 59.625 C0.38848335 58.49656019 1.52650878 57.36765819 2.6640625 56.23828125 C5.43744512 53.48681792 8.21699234 50.74172617 11 48 C5.14013903 40.88861243 -1.42129731 34.55172168 -8.0078125 28.11914062 C-8.87664063 27.26126953 -9.74546875 26.40339844 -10.640625 25.51953125 C-11.42985352 24.74714111 -12.21908203 23.97475098 -13.03222656 23.17895508 C-16.82025141 18.98439903 -17.3998099 15.69024865 -17.24609375 10.18359375 C-16.89475764 7.06618284 -16.07503682 5.35170839 -14 3 C-9.67407732 0.08251726 -5.12915452 -1.19743129 0 0 Z " fill="#000000" transform="translate(624,445)"/>
</svg>
